{"title":"Gunday 2014 Hindi 480p BRRip XviD AC3-N3kr4","uid":10265275,"size":2198847454,"categoryP":"video","categoryS":"hd___movies","magnet":"?xt=urn:btih:4bba0b120ff32d538a57b44c588abe07dc9135ef&amp;dn=Gunday+2014+Hindi+480p+BRRip+XviD+AC3-N3kr4&amp;tr=udp%3A%2F%2Ftracker.openbittorrent.com%3A80&amp;tr=udp%3A%2F%2Fopen.demonii.com%3A1337&amp;tr=udp%3A%2F%2Ftracker.coppersurfer.tk%3A6969&amp;tr=udp%3A%2F%2Fexodus.desync.com%3A6969","seeders":2,"leechers":1,"uploader":"Falcon.G13","files":2,"time":1401514950,"description":" &lt;a href=&quot;http://i.imgur.com/PhHY67h.jpg&quot; rel=&quot;nofollow&quot; target=&quot;_NEW&quot;&gt;http://i.imgur.com/PhHY67h.jpg&lt;/a&gt; &lt;a href=&quot;\nhttp://i.imgur.com/YwTvgAv.jpg&quot; rel=&quot;nofollow&quot; target=&quot;_NEW&quot;&gt;\nhttp://i.imgur.com/YwTvgAv.jpg&lt;/a&gt; &lt;a href=&quot;\nhttp://i.imgur.com/zMsNtBC.jpg&quot; rel=&quot;nofollow&quot; target=&quot;_NEW&quot;&gt;\nhttp://i.imgur.com/zMsNtBC.jpg&lt;/a&gt; &lt;a href=&quot;\nhttp://i.imgur.com/ZyC24wU.jpg&quot; rel=&quot;nofollow&quot; target=&quot;_NEW&quot;&gt;\nhttp://i.imgur.com/ZyC24wU.jpg&lt;/a&gt; &lt;a href=&quot;\nhttp://i.imgur.com/3MlZaZQ.jpg&quot; rel=&quot;nofollow&quot; target=&quot;_NEW&quot;&gt;\nhttp://i.imgur.com/3MlZaZQ.jpg&lt;/a&gt;\n\nGeneral\nComplete name : C:Gunday 2014 Hindi 480p BRRip XviD AC3-N3kr4Gunday 2014 Hindi 480p BRRip XviD AC3-N3kr4.avi\nFormat : AVI\nFormat/Info : Audio Video Interleave\nFormat profile : OpenDML\nFile size : 2.05 GiB\nDuration : 2h 32mn\nOverall bit rate : 1 920 Kbps\nWriting application : Lavf55.7.100\n\nVideo\nID : 0\nFormat : MPEG-4 Visual\nFormat profile : Advanced Simple@L1\nFormat settings, BVOP : No\nFormat settings, QPel : No\nFormat settings, GMC : No warppoints\nFormat settings, Matrix : Default (H.263)\nCodec ID : XVID\nCodec ID/Hint : XviD\nDuration : 2h 32mn\nBit rate : 1 269 Kbps\nWidth : 720 pixels\nHeight : 304 pixels\nDisplay aspect ratio : 2.35:1\nFrame rate : 24.000 fps\nColor space : YUV\nChroma subsampling : 4:2:0\nBit depth : 8 bits\nScan type : Progressive\nCompression mode : Lossy\nBits/(Pixel*Frame) : 0.242\nStream size : 1.35 GiB (66%)\nWriting library : Lavc55.12.100\n\nAudio\nID : 1\nFormat : AC-3\nFormat/Info : Audio Coding 3\nMode extension : CM (complete main)\nFormat settings, Endianness : Big\nCodec ID : 2000\nDuration : 2h 32mn\nBit rate mode : Constant\nBit rate : 640 Kbps\nChannel(s) : 6 channels\nChannel positions : Front: L C R, Side: L R, LFE\nSampling rate : 48.0 KHz\nBit depth : 16 bits\nCompression mode : Lossy\nStream size : 699 MiB (33%)\nAlignment : Aligned on interleaves\nInterleave, duration : 32 ms (0.77 video frame)\nInterleave, preload duration : 32 ms","torrent":{"xt":"urn:btih:4bba0b120ff32d538a57b44c588abe07dc9135ef","amp;dn":"Gunday+2014+Hindi+480p+BRRip+XviD+AC3-N3kr4","amp;tr":["udp%3A%2F%2Ftracker.openbittorrent.com%3A80","udp%3A%2F%2Fopen.demonii.com%3A1337","udp%3A%2F%2Ftracker.coppersurfer.tk%3A6969","udp%3A%2F%2Fexodus.desync.com%3A6969"],"infoHash":"4bba0b120ff32d538a57b44c588abe07dc9135ef","infoHashBuffer":{"type":"Buffer","data":[75,186,11,18,15,243,45,83,138,87,180,76,88,138,190,7,220,145,53,239]},"announce":[],"urlList":[]}}